<svg version="1.1" id="Capa_1" xmlns="http://www.w3.org/2000/svg" x="0" y="0" viewBox="0 0 478.1 478.1" xml:space="preserve"><path d="M124.3 376.6h105.2c11.5 0 21 5.7 24.9 15.3 1.9 3.8 1.9 7.6 3.8 9.6 36.3-5.7 86.1-5.7 86.1-5.7h133.9c0-26.8-1.9-63.1-9.6-91.8l-3.8 1.9c-1.9 1.9-5.7 3.8-9.6 7.6-7.6 5.7-15.3 11.5-26.8 17.2-28.7 15.3-61.2 24.9-95.6 24.9-55.5 0-91.8-30.6-110.9-68.9 0-1.9-1.9-5.7-5.7-13.4-3.8 1.9-5.7 3.8-9.6 5.7l19.1 28.7-15.3 9.6-19.1-28.7c-1.9 1.9-5.7 3.8-7.6 5.7l19.1 30.6-15.3 9.6-19.1-28.7c-1.9 1.9-5.7 3.8-7.6 5.7l17.2 28.7-15.3 9.6-17.2-26.8c-3.8 1.9-5.7 3.8-7.6 5.7l17.2 26.8-15.3 9.6-19.1-30.6H95.9v9.6c0 3.8 1.9 9.6 3.8 15.3 3.6 11.5 11.2 17.2 24.6 17.2z"/><path d="M334.7 338.4c32.5 0 61.2-7.6 86.1-23 9.6-5.7 17.2-9.6 23-15.3 3.8-3.8 5.7-5.7 9.6-7.6l9.6-5.7c-5.7-15.3-13.4-24.9-23-24.9-44 0-38.3 38.3-95.6 38.3s-47.8-38.3-76.5-38.3c-11.5 0-22.9 1.9-32.5 5.7 1.9 7.6 3.8 13.4 3.8 13.4 17.1 32.5 47.7 57.4 95.5 57.4zm9.6 76.5s-57.4 0-89.9 5.7c-28.7 5.7-55.5 13.4-82.2 13.4H9.6c13.4 23 38.3 38.3 66.9 38.3h363.4c21 0 38.3-17.2 38.3-38.3v-19.1H344.3zm-172.2 0c21 0 44-3.8 66.9-9.6 0-1.9 0-3.8-1.9-5.7 0-1.9-3.8-3.8-7.6-3.8H124.3c-21 0-34.4-9.6-42.1-24.9-3.8-7.6-5.7-17.2-5.7-23v-9.6H57.4C24.9 338.4 0 363.2 0 395.8c0 5.7 0 13.4 1.9 19.1h170.2zM401.6 13.7v34.9l-97.4 201.3h-58.5l97.4-190v-.7H234.8V13.7h166.8zM132.8 132.5l16.7 25.2c4.4 6.5 8 12.6 11.9 19.2h.7c3.9-7 7.8-13.1 11.6-19.4l16.5-25h23l-40 56.7 41.2 60.6h-24.2L173 223.4c-4.6-6.8-8.5-13.3-12.6-20.4h-.4c-3.9 7-8 13.3-12.4 20.4l-17 26.4h-23.5l41.7-59.9-39.8-57.5h23.8z"/></svg>